<svg version="1.1" xmlns="http://www.w3.org/2000/svg" xmlns:xlink="http://www.w3.org/1999/xlink" x="0px" y="0px" width="100%" height="100%" xml:space="preserve"><path fill="#777777" d="M236.873,30.591c5.131,0,9.597,1.866,13.396,5.599c3.832,3.8,5.73,8.198,5.73,13.33v187.352 c0,5.132-1.898,9.598-5.73,13.396c-3.8,3.799-8.266,5.732-13.396,5.732H19.129c-5.131,0-9.597-1.934-13.396-5.732 C1.934,246.469,0,242.003,0,236.871V49.52c0-5.132,1.934-9.53,5.732-13.33c3.8-3.732,8.266-5.599,13.396-5.599h6.365v-2.132 c0-3.399,0.566-6.799,1.634-10.198c1.1-3.465,2.864-6.531,5.331-9.197c2.433-2.666,5.665-4.799,9.698-6.532 C46.188,0.865,51.088,0,56.853,0c5.799,0,10.664,0.865,14.729,2.531c4,1.733,7.265,3.866,9.697,6.532 c2.434,2.666,4.232,5.799,5.399,9.264c1.166,3.467,1.699,6.866,1.699,10.132v2.132h7.998v-2.132c0-3.399,0.566-6.799,1.666-10.198 c1.066-3.465,2.866-6.531,5.299-9.197c2.432-2.666,5.698-4.799,9.697-6.532C117.104,0.865,121.969,0,127.768,0 c5.766,0,10.664,0.865,14.696,2.531c4.032,1.733,7.332,3.866,9.897,6.532c2.532,2.666,4.398,5.799,5.532,9.264 c1.133,3.467,1.732,6.866,1.732,10.132v2.132h7.998v-2.132c0-3.399,0.566-6.799,1.732-10.198c1.133-3.465,2.933-6.531,5.366-9.197 c2.466-2.666,5.665-4.799,9.63-6.532C188.352,0.865,193.284,0,199.148,0c5.799,0,10.665,0.865,14.729,2.531 c4,1.733,7.266,3.866,9.698,6.532c2.432,2.666,4.231,5.799,5.298,9.264c1.101,3.467,1.667,6.866,1.667,10.132v2.132H236.873 L236.873,30.591z M71.916,94.441H25.828v41.189h46.088V94.441z M71.916,141.962H25.828v41.189h46.088V141.962z M71.916,189.35 H25.828v40.856h46.088V189.35z M44.456,65.716c0,6.198,4.132,9.265,12.396,9.265s12.431-3.066,12.431-9.265V28.459 c0-6.199-4.166-9.332-12.431-9.332s-12.396,3.133-12.396,9.332V65.716z M124.835,94.441H78.247v41.189h46.588V94.441z M124.835,141.962H78.247v41.189h46.588V141.962z M124.835,189.35H78.247v40.856h46.588V189.35z M115.838,65.716 c0,3.332,0.866,5.731,2.6,7.132c1.732,1.466,4.864,2.133,9.33,2.133s7.664-0.733,9.53-2.2c1.934-1.466,2.866-3.799,2.866-7.064 V28.459c0-3.199-0.933-5.532-2.866-7.065c-1.866-1.533-5.064-2.267-9.53-2.267s-7.598,0.8-9.33,2.4 c-1.733,1.532-2.6,3.865-2.6,6.932V65.716L115.838,65.716z M177.588,94.441H131.2v41.189h46.388V94.441z M177.588,141.962H131.2 v41.189h46.388V141.962z M177.588,189.35H131.2v40.856h46.388V189.35z M230.207,94.441h-46.254v41.189h46.254V94.441z M230.207,141.962h-46.254v41.189h46.254V141.962z M230.207,189.35h-46.254v40.856h46.254V189.35z M186.752,65.716 c0,6.198,4.133,9.265,12.396,9.265c8.266,0,12.363-3.066,12.264-9.265V28.459c0-6.199-4.099-9.332-12.264-9.332 c-8.264,0-12.396,3.133-12.396,9.332V65.716z" class="shape" style="-webkit-transform: matrix(0.09375, 0, 0, 0.09375, 0, 0);-moz-transform: matrix(0.09375, 0, 0, 0.09375, 0, 0);transform: matrix(0.09375, 0, 0, 0.09375, 0, 0);"></path></svg>