<?xml version="1.0" encoding="utf-8"?>
<!-- Generator: Adobe Illustrator 20.1.0, SVG Export Plug-In . SVG Version: 6.00 Build 0)  -->
<!DOCTYPE svg PUBLIC "-//W3C//DTD SVG 1.1//EN" "http://www.w3.org/Graphics/SVG/1.1/DTD/svg11.dtd">
<svg version="1.1" id="Layer_1" xmlns="http://www.w3.org/2000/svg" xmlns:xlink="http://www.w3.org/1999/xlink" x="0px" y="0px"
	 viewBox="0 0 255.7 256" style="enable-background:new 0 0 255.7 256;" xml:space="preserve">
<style type="text/css">
	.st0{fill:#FFFFFF;}
</style>
<path class="st0" d="M250.9,212.1c3.2,3.2,4.8,6.9,4.8,11.1c0,4.1-1.6,7.9-4.8,11.1l-16.7,17c-3.2,3.2-7,4.8-11.3,4.8
	c-4.3,0-8-1.6-11.1-4.8l-83.9-84.1l-84.2,84.1c-3.2,3.2-6.9,4.8-11.1,4.8c-4.2,0-7.9-1.6-11.1-4.8L4.8,234.5
	c-3.2-3.2-4.8-7-4.8-11.3c0-4.2,1.6-8,4.8-11.2l84.6-84.9L4.8,43.9C1.6,40.7,0,37,0,32.7c0-4.3,1.6-8,4.8-11.2L21.5,4.8
	c3.2-3.2,7-4.8,11.3-4.8c4.3,0,8,1.6,11.1,4.8l83.9,83.9l83.9-83.9c3.2-3.2,7-4.8,11.2-4.8c4.2,0,8,1.6,11.2,4.8l16.7,16.7
	c3.2,3.2,4.8,7,4.8,11.3c0,4.3-1.6,8-4.8,11.1l-84.6,84.9L250.9,212.1L250.9,212.1z"/>
</svg>
