<svg xmlns="http://www.w3.org/2000/svg" xmlns:xlink="http://www.w3.org/1999/xlink" version="1.1" id="Layer_1" x="0px" y="0px" width="100%" height="100%" style="enable-background:new 0 0 51 51;" xml:space="preserve"><g class="shape" style="-webkit-transform: matrix(0.470588, 0, 0, 0.470588, 0, 0);-moz-transform: matrix(0.470588, 0, 0, 0.470588, 0, 0);transform: matrix(0.470588, 0, 0, 0.470588, 0, 0);"><g xmlns:default="http://www.w3.org/2000/svg"><g><path fill="#ffffff" d="M46,0H5C2.2,0,0,2.2,0,5v41c0,2.8,2.2,5,5,5h41c2.8,0,5-2.2,5-5V5C51,2.2,48.8,0,46,0z M49,46c0,1.7-1.3,3-3,3H5    c-1.7,0-3-1.3-3-3V5c0-1.7,1.3-3,3-3h41c1.7,0,3,1.3,3,3V46z M15.5,17C10.8,17,7,20.8,7,25.5c0,4.7,3.8,8.5,8.5,8.5    s8.5-3.8,8.5-8.5C24,20.8,20.2,17,15.5,17z M35.5,17c-4.7,0-8.5,3.8-8.5,8.5s3.8,8.5,8.5,8.5s8.5-3.8,8.5-8.5S40.2,17,35.5,17z     M35.5,32c-3.6,0-6.5-2.9-6.5-6.5s2.9-6.5,6.5-6.5s6.5,2.9,6.5,6.5S39.1,32,35.5,32z"></path></g></g></g></svg>