<svg version="1.1" xmlns="http://www.w3.org/2000/svg" xmlns:xlink="http://www.w3.org/1999/xlink" x="0px" y="0px" width="100%" height="100%" xml:space="preserve"><path fill="#a3cc31" d="M52.224,139.189c-3.238-3.238-4.875-6.954-4.875-11.215c0-4.227,1.636-7.875,4.875-11.011L164.337,4.34 c3.238-3.238,7.021-4.84,11.386-4.84c4.328,0,8.111,1.602,11.35,4.84l16.703,16.703c3.239,3.238,4.874,7.022,4.874,11.351 c0,4.363-1.635,8.079-4.874,11.214l-84.877,85.219l84.877,83.563c3.239,3.204,4.874,6.886,4.874,11.113 c0,4.158-1.635,7.84-4.874,11.112l-16.703,17.043c-3.238,3.204-7.021,4.841-11.35,4.841c-4.364,0-8.147-1.637-11.386-4.841 L52.224,139.189L52.224,139.189z" class="shape" style="-webkit-transform: matrix(0.125, 0, 0, 0.125, 0, 0);-moz-transform: matrix(0.125, 0, 0, 0.125, 0, 0);transform: matrix(0.125, 0, 0, 0.125, 0, 0);"></path></svg>