<svg version="1.1" xmlns="http://www.w3.org/2000/svg" xmlns:xlink="http://www.w3.org/1999/xlink" x="0px" y="0px" width="100%" height="100%" xml:space="preserve"><path fill="#777777" d="M42.641,48.151c0,2.861-1.048,5.326-3.116,7.338c-2.097,2.04-4.562,3.06-7.452,3.06h-21.25 c-3.031,0-5.61-1.048-7.706-3.117C1.049,53.336,0,50.928,0,48.151V31.888c0-2.862,1.049-5.355,3.117-7.423 c2.096-2.097,4.675-3.116,7.706-3.116h21.25c2.89,0,5.355,1.02,7.452,3.116c2.068,2.068,3.116,4.562,3.116,7.423V48.151z M42.641,106.602c0,3.06-1.048,5.582-3.116,7.564c-2.097,2.012-4.562,3.004-7.452,3.004h-21.25c-3.031,0-5.61-0.992-7.706-3.004 C1.049,112.183,0,109.661,0,106.602V90.764c0-3.032,1.049-5.61,3.117-7.707c2.096-2.068,4.675-3.117,7.706-3.117h21.25 c2.89,0,5.355,1.048,7.452,3.117c2.068,2.096,3.116,4.675,3.116,7.707V106.602z M42.641,165.236c0,3.06-1.048,5.609-3.116,7.706 c-2.097,2.097-4.562,3.116-7.452,3.116h-21.25c-3.031,0-5.61-1.02-7.706-3.116C1.049,170.846,0,168.296,0,165.236v-15.853 c0-3.06,1.049-5.61,3.117-7.706c2.096-2.068,4.675-3.117,7.706-3.117h21.25c2.89,0,5.355,1.049,7.452,3.117 c2.068,2.096,3.116,4.646,3.116,7.706V165.236z M32.073,197.422c2.89,0,5.355,1.076,7.452,3.174 c2.068,2.039,3.116,4.477,3.116,7.253v15.979c0,3.06-1.048,5.609-3.116,7.706c-2.097,2.097-4.562,3.117-7.452,3.117h-21.25 c-3.031,0-5.61-1.021-7.706-3.117C1.049,229.438,0,226.888,0,223.828v-15.979c0-2.833,1.049-5.327,3.117-7.366 c2.096-2.041,4.675-3.061,7.706-3.061H32.073z M245.404,21.349c2.89,0,5.383,1.02,7.423,3.116c2.097,2.068,3.173,4.562,3.173,7.423 v16.263c0,2.861-1.076,5.326-3.173,7.338c-2.04,2.04-4.533,3.06-7.423,3.06H74.855c-3.061,0-5.61-1.048-7.707-3.117 c-2.068-2.097-3.116-4.505-3.116-7.281V31.888c0-2.862,1.048-5.355,3.116-7.423c2.097-2.097,4.646-3.116,7.707-3.116H245.404z M64.032,90.764c0-3.032,1.048-5.61,3.116-7.707c2.097-2.068,4.646-3.117,7.707-3.117h170.549c2.89,0,5.383,1.048,7.423,3.117 c2.097,2.096,3.173,4.675,3.173,7.707v15.838c0,3.06-1.076,5.582-3.173,7.564c-2.04,2.012-4.533,3.004-7.423,3.004H74.855 c-3.061,0-5.61-0.992-7.707-3.004c-2.068-1.983-3.116-4.505-3.116-7.564V90.764z M64.032,149.384c0-3.06,1.048-5.61,3.116-7.706 c2.097-2.068,4.646-3.117,7.707-3.117h170.549c2.89,0,5.383,1.049,7.423,3.117c2.097,2.096,3.173,4.646,3.173,7.706v15.853 c0,3.06-1.076,5.609-3.173,7.706c-2.04,2.097-4.533,3.116-7.423,3.116H74.855c-3.061,0-5.61-1.02-7.707-3.116 c-2.068-2.097-3.116-4.646-3.116-7.706V149.384z M64.032,207.849c0-2.833,1.048-5.327,3.116-7.366 c2.097-2.041,4.646-3.061,7.707-3.061h170.549c2.89,0,5.383,1.076,7.423,3.174c2.097,2.039,3.173,4.477,3.173,7.253v15.979 c0,3.06-1.076,5.609-3.173,7.706c-2.04,2.097-4.533,3.117-7.423,3.117H74.855c-3.061,0-5.61-1.021-7.707-3.117 c-2.068-2.097-3.116-4.646-3.116-7.706V207.849z" class="shape" style="-webkit-transform: matrix(0.09375, 0, 0, 0.09375, 0, 0);-moz-transform: matrix(0.09375, 0, 0, 0.09375, 0, 0);transform: matrix(0.09375, 0, 0, 0.09375, 0, 0);"></path></svg>