<svg version="1.1" xmlns="http://www.w3.org/2000/svg" xmlns:xlink="http://www.w3.org/1999/xlink" x="0px" y="0px" width="100%" height="100%" xml:space="preserve"><path fill="#ffffff" d="M128.09,0c17.716,0,34.367,3.334,49.795,10.002c15.492,6.7,29.089,15.819,40.726,27.422 c11.634,11.57,20.786,25.134,27.388,40.692c6.603,15.525,9.937,32.194,9.937,49.909c0,17.715-3.334,34.368-9.937,49.926 c-6.602,15.492-15.754,29.09-27.388,40.66c-11.637,11.634-25.233,20.722-40.726,27.388C162.457,252.667,145.806,256,128.09,256 c-6.308,0-12.485-0.458-18.5-1.307c-6.046-0.916-12.06-2.224-18.042-3.922c2.452-3.792,4.936-8.041,7.452-12.879 c2.517-4.771,4.413-9.674,5.687-14.707l1.765-6.603c0.654-2.419,1.503-5.949,2.582-10.525c1.046-4.575,2.615-10.588,4.641-17.975 c2.451,4.378,6.504,8.17,12.158,11.309c5.654,3.137,11.963,4.706,18.924,4.706c10.263,0,19.66-2.157,28.223-6.537 c8.499-4.379,15.819-10.524,21.834-18.368c6.014-7.846,10.72-17.127,14.12-27.864c3.333-10.753,5.032-22.355,5.032-34.841 c0-9.413-1.896-18.532-5.687-27.422c-3.791-8.857-9.282-16.734-16.407-23.598c-7.191-6.896-15.689-12.355-25.625-16.342 c-9.953-4.021-21.064-6.014-33.355-6.014c-15.066,0-28.336,2.451-39.808,7.354C81.613,55.4,72.037,61.708,64.389,69.454 C56.773,77.2,51.021,85.796,47.164,95.177c-3.824,9.381-5.752,18.696-5.752,27.88c0,11.112,2.125,21.115,6.406,30.037 c4.281,8.906,10.884,15.182,19.872,18.843c3.301,1.045,5.491,0,6.569-3.203c0.196-1.111,0.589-2.746,1.111-5.1 c0.523-2.271,1.013-4.004,1.438-5.181c0.424-1.698,0.49-2.94,0.163-3.693c-0.327-0.719-1.013-1.896-2.092-3.529 c-5.654-6.275-8.465-14.577-8.465-24.807c0-8.139,1.471-15.885,4.38-23.304c2.941-7.452,7.158-13.956,12.583-19.578 c5.458-5.589,12.093-10.1,19.872-13.433c7.812-3.367,16.506-5.066,26.114-5.066c8.564,0,16.146,1.275,22.847,3.759 c6.668,2.517,12.272,5.981,16.914,10.328c4.576,4.413,8.04,9.544,10.328,15.394c2.288,5.883,3.399,12.355,3.399,19.382 c0,9.217-0.98,17.943-2.941,26.278c-1.961,8.334-4.772,15.622-8.434,21.816c-3.595,6.145-7.844,11.112-12.795,14.707 c-4.903,3.662-10.395,5.492-16.506,5.492c-3.302,0-6.373-0.719-9.217-2.026c-2.811-1.373-5.229-3.138-7.191-5.425 c-1.994-2.354-3.333-4.969-4.085-7.91c-0.752-2.877-0.687-6.129,0.163-9.659c1.928-8.105,4.282-16.211,7.125-24.285 c2.811-8.072,4.249-15.034,4.249-20.884c0-5.229-1.438-9.74-4.249-13.466c-2.844-3.726-7.19-5.622-13.074-5.622 c-7.027,0-12.911,3.137-17.617,9.38c-4.707,6.242-7.06,14.087-7.06,23.467c-0.195,2.452-0.098,4.871,0.327,7.223 c0.229,1.896,0.622,4.086,1.209,6.473c0.588,2.418,1.405,4.641,2.484,6.667c-3.53,15.035-6.374,27.046-8.563,36.067 c-2.189,8.955-3.824,15.949-4.902,20.983c-1.274,5.884-2.223,10.131-2.876,12.812c-1.078,4.772-1.797,9.74-2.157,14.904 c-0.393,5.099-0.458,9.87-0.262,14.251c-11.08-4.838-21.343-11.178-30.756-19.153c-9.38-7.976-17.486-16.996-24.251-27.062 c-6.798-10.133-12.061-21.18-15.787-33.208c-3.758-12.011-5.622-24.562-5.622-37.701c0-17.714,3.333-34.384,10.034-49.909 c6.667-15.558,15.787-29.122,27.39-40.692c11.57-11.603,25.134-20.722,40.692-27.422C93.706,3.334,110.342,0,128.09,0z" class="shape" style="-webkit-transform: matrix(0.09375, 0, 0, 0.09375, 0, 0);-moz-transform: matrix(0.09375, 0, 0, 0.09375, 0, 0);transform: matrix(0.09375, 0, 0, 0.09375, 0, 0);"></path></svg>