<svg version="1.1" xmlns="http://www.w3.org/2000/svg" xmlns:xlink="http://www.w3.org/1999/xlink" xmlns:a="http://ns.adobe.com/AdobeSVGViewerExtensions/3.0/" x="0px" y="0px" width="100%" height="100%" xml:space="preserve"><g class="shape" style="-webkit-transform: matrix(0.54545454545455, 0, 0, 0.5, 0, 0);-moz-transform: matrix(0.54545454545455, 0, 0, 0.5, 0, 0);transform: matrix(0.54545454545455, 0, 0, 0.5, 0, 0);"><defs></defs><rect fill="#ffffff" display="none" width="22" height="22"></rect><rect fill="#ffffff" id="_x3C_Slice_x3E__81_" display="none" width="22" height="22"></rect><path fill="#ffffff" fill-rule="evenodd" clip-rule="evenodd" d="M2.5,17C1.119,17,0,18.119,0,19.5S1.119,22,2.5,22S5,20.881,5,19.5 S3.881,17,2.5,17z M0,0v4c9.941,0,18,8.059,18,18h4C22,9.85,12.15,0,0,0z M0,8v4c5.523,0,10,4.478,10,10h4C14,14.268,7.732,8,0,8z"></path></g></svg>