<svg xmlns="http://www.w3.org/2000/svg" xmlns:xlink="http://www.w3.org/1999/xlink" version="1.1" id="Layer_1" x="0px" y="0px" width="100%" height="100%" style="enable-background:new 0 0 51 38;" xml:space="preserve"><g class="shape" style="-webkit-transform: matrix(0.470588, 0, 0, 0.470588, 0, 3);-moz-transform: matrix(0.470588, 0, 0, 0.470588, 0, 3);transform: matrix(0.470588, 0, 0, 0.470588, 0, 3);"><g xmlns:default="http://www.w3.org/2000/svg"><g><path fill="#ffffff" d="M46,0H5C2.2,0,0,2.2,0,5v28c0,2.8,2.2,5,5,5h41c2.8,0,5-2.2,5-5V5C51,2.2,48.8,0,46,0z M49,33c0,1.7-1.3,3-3,3H5    c-1.7,0-3-1.3-3-3V5c0-1.7,1.3-3,3-3h41c1.7,0,3,1.3,3,3V33z M32.4,18.1l-11-5.3c-0.3-0.1-0.7-0.1-1,0.1C20.2,13,20,13.4,20,13.7    v10.6c0,0.3,0.2,0.7,0.5,0.8c0.2,0.1,0.3,0.2,0.5,0.2c0.1,0,0.3,0,0.4-0.1l11-5.3c0.3-0.2,0.6-0.5,0.6-0.9    C33,18.6,32.8,18.3,32.4,18.1z M22,22.7v-7.4l7.7,3.7L22,22.7z"></path></g></g></g></svg>